<svg xmlns="http://www.w3.org/2000/svg" viewBox="0 0 64 64">
  <rect width="64" height="64" rx="14" fill="#171817"/>
  <path d="M20 13c4.5 0 7.3 3.2 12 3.2S39.5 13 44 13c5.2 0 8 4.1 8 9.5 0 6.7-3.4 10.2-5 16.1-1.4 5.4-2.7 12.4-7 12.4-3.7 0-4.2-5.2-5.2-9.4-.7-3-1.4-5.8-2.8-5.8s-2.1 2.8-2.8 5.8c-1 4.2-1.5 9.4-5.2 9.4-4.3 0-5.6-7-7-12.4-1.6-5.9-5-9.4-5-16.1C12 17.1 14.8 13 20 13Z" fill="none" stroke="#C8CBC7" stroke-width="3.2"/>
  <path d="M17 31c8.4-1.8 15.2-7 19.8-15.4M21 42c8.4-2.3 14.9-7.5 19.3-15.2" fill="none" stroke="#C5B52A" stroke-linecap="round" stroke-width="4.2"/>
</svg>
